<svg width="180" height="181" viewBox="0 0 180 181" fill="none" xmlns="http://www.w3.org/2000/svg">
<path d="M120.09 0H59.9016C49.6043 0 41.2266 8.42357 41.2266 18.7791V162.221C41.2266 172.575 49.6043 181 59.9016 181H120.09C130.388 181 138.766 172.575 138.766 162.222V18.7791C138.766 8.42357 130.388 0 120.09 0ZM89.996 169.907C85.8233 169.907 82.4283 166.493 82.4283 162.298C82.4283 158.101 85.823 154.688 89.996 154.688C94.1687 154.688 97.5637 158.101 97.5637 162.298C97.5637 166.493 94.1687 169.907 89.996 169.907ZM127.71 23.7814V144.032H52.2821V23.7814H127.71Z" fill="#232323"/>
<path d="M99.043 98.5827V95.166H104.168V90.041H107.585V96.0202C107.585 96.7035 107.243 97.216 106.73 97.7285C106.218 98.241 105.535 98.5827 105.022 98.5827H99.043ZM81.9596 98.5827H75.9805C75.2971 98.5827 74.7846 98.241 74.2721 97.7285C73.7596 97.216 73.418 96.5327 73.418 96.0202V90.041H76.8346V95.166H81.9596V98.5827ZM99.043 64.416H105.022C105.705 64.416 106.218 64.7577 106.73 65.2702C107.243 65.7827 107.585 66.2952 107.585 66.9785V72.9577H104.168V67.8327H99.043V64.416ZM81.9596 64.416V67.8327H76.8346V72.9577H73.418V66.9785C73.418 66.2952 73.7596 65.7827 74.2721 65.2702C74.7846 64.7577 75.2971 64.416 75.9805 64.416H81.9596ZM102.46 79.791H78.543V83.2077H102.46V79.791Z" fill="#232323"/>
</svg>
